# xmcd
#
# Track frame offsets:
#	150
#	21145
#	45224
#	62530
#	82338
#	99730
#	118844
#	143407
#	165521
#	184332
#	199150
#
# Disc length: 2894 seconds
#
# Revision: 1
# Processed by: cddbd v1.5.2PL0 Copyright (c) Steve Scherf et al.
# Submitted via: audiograbber 1.83.01
#
DISCID=900b4c0b
DTITLE=Lauren Housley - Sweet Surrender
DYEAR=2015
DGENRE=Americana/Country
TTITLE0=Nice to See Ya
TTITLE1=The Waiting Game
TTITLE2=If You Were Mine
TTITLE3=Face the World Alone
TTITLE4=Ghost Town Blues
TTITLE5=When Autumn Came
TTITLE6=Sweet Surrender
TTITLE7=Show Me What Love Is
TTITLE8=It Ain't About You
TTITLE9=All You Need Is a Friend
TTITLE10=Ghost Town Blues (Radio Edit)
EXTD=
EXTT0=
EXTT1=
EXTT2=
EXTT3=
EXTT4=
EXTT5=
EXTT6=
EXTT7=
EXTT8=
EXTT9=
EXTT10=
PLAYORDER=
